<?xml version="1.0" encoding="UTF-8" standalone="no"?>
<svg
   xmlns:dc="http://purl.org/dc/elements/1.1/"
   xmlns:cc="http://creativecommons.org/ns#"
   xmlns:rdf="http://www.w3.org/1999/02/22-rdf-syntax-ns#"
   xmlns:svg="http://www.w3.org/2000/svg"
   xmlns="http://www.w3.org/2000/svg"
   xmlns:sodipodi="http://sodipodi.sourceforge.net/DTD/sodipodi-0.dtd"
   xmlns:inkscape="http://www.inkscape.org/namespaces/inkscape"
   width="210mm"
   height="297mm"
   viewBox="0 0 210 297"
   version="1.1"
   id="svg8"
   inkscape:version="1.0.1 (3bc2e813f5, 2020-09-07)"
   sodipodi:docname="drawing.svg">
  <defs
     id="defs2" />
  <sodipodi:namedview
     id="base"
     pagecolor="#ffffff"
     bordercolor="#666666"
     borderopacity="1.0"
     inkscape:pageopacity="0.0"
     inkscape:pageshadow="2"
     inkscape:zoom="0.99999999"
     inkscape:cx="651.75001"
     inkscape:cy="321.42136"
     inkscape:document-units="px"
     inkscape:current-layer="layer2"
     inkscape:document-rotation="0"
     showgrid="false"
     showborder="false"
     inkscape:pagecheckerboard="true"
     inkscape:showpageshadow="false"
     inkscape:window-width="1600"
     inkscape:window-height="837"
     inkscape:window-x="-8"
     inkscape:window-y="-8"
     inkscape:window-maximized="1" />
  <metadata
     id="metadata5">
    <rdf:RDF>
      <cc:Work
         rdf:about="">
        <dc:format>image/svg+xml</dc:format>
        <dc:type
           rdf:resource="http://purl.org/dc/dcmitype/StillImage" />
        <dc:title />
      </cc:Work>
    </rdf:RDF>
  </metadata>
  <g
     inkscape:label="Background"
     inkscape:groupmode="layer"
     id="layer1"
     sodipodi:insensitive="true">
    <rect
       style="fill:#ffffff;stroke:none;stroke-width:0;stroke-linecap:round;stroke-linejoin:bevel;paint-order:markers fill stroke;stop-color:#000000"
       id="rect833"
       width="317.5"
       height="317.5"
       x="0"
       y="-317.5"
       transform="scale(1,-1)" />
  </g>
  <g
     inkscape:groupmode="layer"
     id="layer2"
     inkscape:label="Layer 2">
    <path
       id="rect836"
       style="fill:#000080;stroke:none;stroke-width:0;stroke-linecap:round;stroke-linejoin:bevel;paint-order:markers fill stroke;stop-color:#000000"
       d="M 0,0 H 317.5 V 52.916668 H 0 Z" />
    <text
       xml:space="preserve"
       style="font-style:normal;font-variant:normal;font-weight:bold;font-stretch:normal;font-size:7.76111px;line-height:1.25;font-family:Calibri;-inkscape-font-specification:'Calibri Bold';fill:#aaeeff;fill-opacity:1;stroke:none;stroke-width:0.264583"
       x="220.87961"
       y="36.538311"
       id="text841"><tspan
         sodipodi:role="line"
         x="220.87961"
         y="36.538311"
         style="font-style:normal;font-variant:normal;font-weight:bold;font-stretch:normal;font-size:7.76111px;font-family:Calibri;-inkscape-font-specification:'Calibri Bold';fill:#aaeeff;stroke-width:0.264583"
         id="tspan843">Portfolio | Contact | Work</tspan></text>
    <text
       xml:space="preserve"
       style="font-style:normal;font-weight:normal;font-size:10.5833px;line-height:1.25;font-family:sans-serif;fill:#000000;fill-opacity:1;stroke:none;stroke-width:0.264583"
       x="287.33749"
       y="31.485416"
       id="text849"><tspan
         sodipodi:role="line"
         id="tspan847"
         x="287.33749"
         y="31.485416"
         style="stroke-width:0.264583" /></text>
    <rect
       style="fill:#aaeeff;stroke:none;stroke-width:0;stroke-linecap:round;stroke-linejoin:bevel;paint-order:markers fill stroke;stop-color:#000000"
       id="rect851"
       width="317.5"
       height="14.022917"
       x="0"
       y="0" />
    <rect
       style="font-variation-settings:normal;opacity:1;vector-effect:none;fill:#004455;fill-opacity:1;stroke:none;stroke-width:0;stroke-linecap:round;stroke-linejoin:bevel;stroke-miterlimit:4;stroke-dasharray:none;stroke-dashoffset:0;stroke-opacity:1;paint-order:markers fill stroke;stop-color:#000000;stop-opacity:1"
       id="rect853"
       width="52.652084"
       height="52.652084"
       x="-133.87918"
       y="27.516665"
       ry="4.7624998"
       rx="0" />
    <rect
       style="font-variation-settings:normal;opacity:1;vector-effect:none;fill:#ffffff;fill-opacity:1;stroke:none;stroke-width:0;stroke-linecap:round;stroke-linejoin:bevel;stroke-miterlimit:4;stroke-dasharray:none;stroke-dashoffset:0;stroke-opacity:1;paint-order:markers fill stroke;stop-color:#000000;stop-opacity:1"
       id="rect853-6"
       width="46.963543"
       height="46.963543"
       x="-131.03491"
       y="30.360933"
       ry="2.3958738"
       rx="0" />
    <path
       id="path900"
       style="font-style:normal;font-variant:normal;font-weight:bold;font-stretch:normal;font-size:22.5778px;line-height:1.25;font-family:'David Libre';-inkscape-font-specification:'David Libre, Bold';font-variant-ligatures:normal;font-variant-caps:normal;font-variant-numeric:normal;font-variant-east-asian:normal;fill:#000000;fill-opacity:1;stroke:none;stroke-width:0.264583"
       d="m -111.66604,30.783203 c -9.64046,0.327493 -18.47433,9.316344 -14.32146,18.252884 2.46226,5.716473 9.2492,6.446956 14.02675,9.236234 5.90864,2.411418 2.33654,11.334477 -3.30901,7.540816 -3.41574,-2.688678 -9.48109,-3.202144 -11.44617,1.48159 -1.93998,5.500704 4.67435,8.405426 9.31499,9.012343 9.11313,1.191843 20.338599,-3.304692 21.663999,-13.127861 1.03434,-7.665986 -5.397539,-15.673308 -12.706199,-16.067768 -6.2443,-0.337015 -6.8363,-7.52465 -0.70673,-6.078337 5.79674,1.36778 11.079304,3.606631 11.391298,-2.460306 -0.79699,-7.604889 -8.801728,-7.96304 -13.907468,-7.789595 z"
       sodipodi:nodetypes="sccccsssscs" />
    <path
       id="path902-0"
       style="font-style:normal;font-variant:normal;font-weight:bold;font-stretch:normal;font-size:22.5778px;line-height:1.25;font-family:'David Libre';-inkscape-font-specification:'David Libre, Bold';font-variant-ligatures:normal;font-variant-caps:normal;font-variant-numeric:normal;font-variant-east-asian:normal;fill:#000000;fill-opacity:1;stroke:none;stroke-width:0.264583"
       d="m -91.509785,35.139621 c -2.629187,0.18601 -4.466317,2.764012 -4.720697,5.230469 -0.0837,1.161304 0.27648,2.380749 1.09375,3.228516 -1.34267,1.562412 -1.74812,4.014345 -0.52331,5.762617 1.67187,2.792995 6.677924,3.198869 8.769271,0.669023 1.41676,-1.526399 2.003783,-3.810674 1.201293,-5.876953 -0.319782,-0.823386 -0.99996,-1.452977 -1.7207,-1.943359 1.22834,-1.698833 1.19814,-4.326835 -0.465027,-5.738688 -0.97899,-0.888972 -2.3241,-1.333991 -3.63458,-1.331625 z"
       sodipodi:nodetypes="cccccsccc" />
    <path
       id="path902"
       style="font-style:normal;font-variant:normal;font-weight:bold;font-stretch:normal;font-size:22.5778px;line-height:1.25;font-family:'David Libre';-inkscape-font-specification:'David Libre, Bold';font-variant-ligatures:normal;font-variant-caps:normal;font-variant-numeric:normal;font-variant-east-asian:normal;fill:#000000;fill-opacity:1;stroke:none;stroke-width:0.264583"
       d="m -76.676965,43.738272 c 0.005,-1.327939 0.77147,-2.540041 1.75562,-3.3817 -0.45042,-0.480048 -1.11112,-0.787343 -1.31406,-1.467961 -0.67796,-1.562483 -0.004,-3.365287 1.04621,-4.590309 0.74347,-0.888821 1.931566,-1.48916 3.103959,-1.226984 1.452251,0.196809 2.913576,1.231993 3.130419,2.758257 0.178545,1.156829 -0.317374,2.328054 -1.113711,3.153911 -0.481555,0.628115 0.686411,0.68867 0.966626,1.089322 0.707477,0.483637 1.271615,1.242365 1.284429,2.128247 0.07924,1.398175 -0.673855,2.688092 -1.518649,3.743649 -0.758747,0.931717 -1.908204,1.543064 -3.120494,1.539451 -1.485479,0.05375 -3.004349,-0.70184 -3.727939,-2.025277 -0.30658,-0.518695 -0.49599,-1.114954 -0.49241,-1.720606 z m 3.759284,-7.805213 c -0.772974,-0.115577 -1.230064,0.94189 -0.653584,1.457739 0.505946,0.421063 1.193137,1.053065 1.857846,0.960376 0.582188,-0.573951 0.529223,-1.710846 -0.215833,-2.133736 -0.291502,-0.189365 -0.640577,-0.291573 -0.988429,-0.284379 z m 1.697731,6.526393 c -0.641527,-0.464364 -1.326167,-0.866795 -2.031228,-1.226435 -0.700017,0.113846 -0.898807,0.964276 -0.868447,1.569263 0.0751,1.002402 1.091219,1.732299 2.064745,1.623535 0.797571,0.01543 1.513806,-0.83929 1.14258,-1.601894 -0.07063,-0.14431 -0.17813,-0.269748 -0.30765,-0.364469 z" />
    <path
       d="m -75.953087,60.741652 q 0,-0.959204 0.474375,-2.135001 0.484258,-1.175798 1.304532,-2.691961 0.434843,-0.814807 0.790625,-1.402707 0.365663,-0.587899 0.820272,-1.278938 l 0.27672,-0.422874 q 0.158124,-0.226908 0.286601,-0.340363 0.128477,-0.113454 0.326133,-0.25785 0.592968,-0.38162 1.324297,-0.742609 0.731327,-0.360991 1.037695,-0.360991 0.197656,0 0.326132,0.123768 0.128477,0.123768 0.128477,0.268163 0,0.103142 -0.04941,0.206281 -0.03953,0.09283 -0.108711,0.185652 -0.0593,0.09283 -0.08894,0.144397 -0.31625,0.495073 -0.928984,1.371764 -0.662148,0.94889 -1.12664,1.650243 -0.45461,0.701354 -0.780743,1.320196 -0.03953,0.06185 -0.03953,0.07222 0,0.03097 0.01977,0.05155 0.02964,0.01033 0.04941,0.01033 0.04941,0 0.108711,-0.04125 0.128477,-0.0928 0.52379,-0.195966 0.395312,-0.103141 0.770859,-0.103141 0.820272,0 1.482422,0.495073 0.662148,0.484757 1.037695,1.258305 0.38543,0.76324 0.38543,1.557418 0,1.03141 -0.355782,1.908096 -0.345898,0.876696 -1.047578,1.681184 -0.553438,0.670412 -1.324298,1.144858 -0.770859,0.474446 -1.650428,0.474446 -0.751094,0 -1.512071,-0.319731 -0.760975,-0.319739 -1.215585,-0.783867 -0.504023,-0.495076 -0.87957,-1.165487 -0.365665,-0.670412 -0.365665,-1.681183 z m 3.192148,0.69104 q 0.286602,0.237223 0.642383,0.391929 0.365664,0.154716 0.583086,0.154716 0.780741,0 1.185938,-0.422878 0.415077,-0.433188 0.415077,-1.165488 0,-0.381619 -0.197656,-0.814808 -0.187773,-0.443498 -0.602851,-0.752919 -0.405195,-0.319731 -1.008047,-0.319731 -0.760977,0 -1.205703,0.495067 -0.434843,0.484757 -0.434843,1.237685 0,0.35068 0.168007,0.660092 0.168008,0.309422 0.454609,0.536335 z"
       style="font-style:normal;font-variant:normal;font-weight:bold;font-stretch:normal;font-size:22.5778px;line-height:1.25;font-family:'David Libre';-inkscape-font-specification:'David Libre, Bold';font-variant-ligatures:normal;font-variant-caps:normal;font-variant-numeric:normal;font-variant-east-asian:normal;fill:#ffffff;fill-opacity:1;stroke:none;stroke-width:0.264583"
       id="path904-6" />
    <path
       d="m -70.132252,44.866649 q 0,-0.959204 0.474375,-2.135001 0.484258,-1.175798 1.304532,-2.691961 0.434843,-0.814807 0.790625,-1.402707 0.365663,-0.587899 0.820272,-1.278938 l 0.27672,-0.422874 q 0.158124,-0.226908 0.286601,-0.340363 0.128477,-0.113454 0.326133,-0.25785 0.592968,-0.38162 1.324297,-0.742609 0.731327,-0.360991 1.037695,-0.360991 0.197656,0 0.326132,0.123768 0.128477,0.123768 0.128477,0.268163 0,0.103142 -0.04941,0.206281 -0.03953,0.09283 -0.108711,0.185652 -0.0593,0.09283 -0.08894,0.144397 -0.31625,0.495073 -0.928984,1.371764 -0.662148,0.94889 -1.12664,1.650243 -0.45461,0.701354 -0.780743,1.320196 -0.03953,0.06185 -0.03953,0.07222 0,0.03097 0.01977,0.05155 0.02964,0.01033 0.04941,0.01033 0.04941,0 0.108711,-0.04125 0.128477,-0.0928 0.52379,-0.195966 0.395312,-0.103141 0.770859,-0.103141 0.820272,0 1.482422,0.495073 0.662148,0.484757 1.037695,1.258305 0.38543,0.76324 0.38543,1.557418 0,1.03141 -0.355782,1.908096 -0.345898,0.876696 -1.047578,1.681184 -0.553438,0.670412 -1.324298,1.144858 -0.770859,0.474446 -1.650428,0.474446 -0.751094,0 -1.512071,-0.319731 -0.760975,-0.31974 -1.215585,-0.783868 -0.504023,-0.495076 -0.87957,-1.165487 -0.365665,-0.670412 -0.365665,-1.681183 z m 3.192148,0.69104 q 0.286602,0.237223 0.642383,0.391929 0.365664,0.154716 0.583086,0.154716 0.780741,0 1.185938,-0.422878 0.415077,-0.433188 0.415077,-1.165488 0,-0.381619 -0.197656,-0.814808 -0.187773,-0.443498 -0.602851,-0.752919 -0.405195,-0.319731 -1.008047,-0.319731 -0.760977,0 -1.205703,0.495067 -0.434843,0.484757 -0.434843,1.237685 0,0.35068 0.168007,0.660092 0.168008,0.309422 0.454609,0.536335 z"
       style="font-style:normal;font-variant:normal;font-weight:bold;font-stretch:normal;font-size:22.5778px;line-height:1.25;font-family:'David Libre';-inkscape-font-specification:'David Libre, Bold';font-variant-ligatures:normal;font-variant-caps:normal;font-variant-numeric:normal;font-variant-east-asian:normal;fill:#000000;fill-opacity:1;stroke:none;stroke-width:0.264583"
       id="path904" />
    <path
       d="m -74.240201,60.932533 q 0,-0.959204 0.474375,-2.135001 0.484258,-1.175798 1.304532,-2.691961 0.434843,-0.814807 0.790625,-1.402707 0.365663,-0.587899 0.820272,-1.278938 l 0.27672,-0.422874 q 0.158124,-0.226908 0.286601,-0.340363 0.128477,-0.113454 0.326133,-0.25785 0.592968,-0.38162 1.324297,-0.742609 0.731327,-0.360991 1.037695,-0.360991 0.197656,0 0.326132,0.123768 0.128477,0.123768 0.128477,0.268163 0,0.103142 -0.04941,0.206281 -0.03953,0.09283 -0.108711,0.185652 -0.0593,0.09283 -0.08894,0.144397 -0.31625,0.495073 -0.928984,1.371764 -0.662148,0.94889 -1.12664,1.650243 -0.45461,0.701354 -0.780743,1.320196 -0.03953,0.06185 -0.03953,0.07222 0,0.03097 0.01977,0.05155 0.02964,0.01033 0.04941,0.01033 0.04941,0 0.108711,-0.04125 0.128477,-0.0928 0.52379,-0.195966 0.395312,-0.103141 0.770859,-0.103141 0.820272,0 1.482422,0.495073 0.662148,0.484757 1.037695,1.258305 0.38543,0.76324 0.38543,1.557418 0,1.03141 -0.355782,1.908096 -0.345898,0.876696 -1.047578,1.681184 -0.553438,0.670412 -1.324298,1.144858 -0.770859,0.474446 -1.650428,0.474446 -0.751094,0 -1.512071,-0.319731 -0.760975,-0.319739 -1.215585,-0.783867 -0.504023,-0.495076 -0.87957,-1.165487 -0.365665,-0.670412 -0.365665,-1.681183 z m 3.192148,0.69104 q 0.286602,0.237223 0.642383,0.391929 0.365664,0.154716 0.583086,0.154716 0.780741,0 1.185938,-0.422878 0.415077,-0.433188 0.415077,-1.165488 0,-0.381619 -0.197656,-0.814808 -0.187773,-0.443498 -0.602851,-0.752919 -0.405195,-0.319731 -1.008047,-0.319731 -0.760977,0 -1.205703,0.495067 -0.434843,0.484757 -0.434843,1.237685 0,0.35068 0.168007,0.660092 0.168008,0.309422 0.454609,0.536335 z"
       style="font-style:normal;font-variant:normal;font-weight:bold;font-stretch:normal;font-size:22.5778px;line-height:1.25;font-family:'David Libre';-inkscape-font-specification:'David Libre, Bold';font-variant-ligatures:normal;font-variant-caps:normal;font-variant-numeric:normal;font-variant-east-asian:normal;fill:#000000;fill-opacity:1;stroke:none;stroke-width:0.264583"
       id="path904-5" />
    <path
       d="m -95.06178,62.546531 q 0,-0.959204 0.474375,-2.135001 0.484258,-1.175798 1.304532,-2.691961 0.434843,-0.814807 0.790625,-1.402707 0.365663,-0.587899 0.820272,-1.278938 l 0.27672,-0.422874 q 0.158124,-0.226908 0.286601,-0.340363 0.128477,-0.113454 0.326133,-0.25785 0.592968,-0.38162 1.324297,-0.742609 0.731327,-0.360991 1.037695,-0.360991 0.197656,0 0.326132,0.123768 0.128477,0.123768 0.128477,0.268163 0,0.103142 -0.04941,0.206281 -0.03953,0.09283 -0.108711,0.185652 -0.0593,0.09283 -0.08894,0.144397 -0.31625,0.495073 -0.928984,1.371764 -0.662148,0.94889 -1.12664,1.650243 -0.45461,0.701354 -0.780743,1.320196 -0.03953,0.06185 -0.03953,0.07222 0,0.03097 0.01977,0.05155 0.02964,0.01033 0.04941,0.01033 0.04941,0 0.108711,-0.04125 0.128477,-0.0928 0.52379,-0.195966 0.395312,-0.103141 0.770859,-0.103141 0.820272,0 1.482422,0.495073 0.662148,0.484757 1.037695,1.258305 0.38543,0.76324 0.38543,1.557418 0,1.03141 -0.355782,1.908096 -0.345898,0.876696 -1.047578,1.681184 -0.553438,0.670412 -1.324298,1.144858 -0.770859,0.474446 -1.650428,0.474446 -0.751094,0 -1.512071,-0.319731 -0.760975,-0.319739 -1.215585,-0.783867 -0.504023,-0.495076 -0.87957,-1.165487 -0.365665,-0.670412 -0.365665,-1.681183 z m 3.192148,0.69104 q 0.286602,0.237223 0.642383,0.391929 0.365664,0.154716 0.583086,0.154716 0.780741,0 1.185938,-0.422878 0.415077,-0.433188 0.415077,-1.165488 0,-0.381619 -0.197656,-0.814808 -0.187773,-0.443498 -0.602851,-0.752919 -0.405195,-0.319731 -1.008047,-0.319731 -0.760977,0 -1.205703,0.495067 -0.434843,0.484757 -0.434843,1.237685 0,0.35068 0.168007,0.660092 0.168008,0.309422 0.454609,0.536335 z"
       style="font-style:normal;font-variant:normal;font-weight:bold;font-stretch:normal;font-size:22.5778px;line-height:1.25;font-family:'David Libre';-inkscape-font-specification:'David Libre, Bold';font-variant-ligatures:normal;font-variant-caps:normal;font-variant-numeric:normal;font-variant-east-asian:normal;fill:#000000;fill-opacity:1;stroke:none;stroke-width:0.264583"
       id="path904-65" />
    <g
       aria-label="S"
       id="text28"
       style="font-style:normal;font-variant:normal;font-weight:bold;font-stretch:normal;font-size:47.7822px;line-height:1.25;font-family:'Frank Ruhl Hofshi';-inkscape-font-specification:'Frank Ruhl Hofshi, Bold';font-variant-ligatures:normal;font-variant-caps:normal;font-variant-numeric:normal;font-variant-east-asian:normal;fill:#000000;fill-opacity:1;stroke:none;stroke-width:0.264583">
      <path
         id="path30"
         style="font-style:normal;font-variant:normal;font-weight:bold;font-stretch:normal;font-size:47.7822px;font-family:'Frank Ruhl Hofshi';-inkscape-font-specification:'Frank Ruhl Hofshi, Bold';font-variant-ligatures:normal;font-variant-caps:normal;font-variant-numeric:normal;font-variant-east-asian:normal;stroke-width:0.264583"
         d="m -90.434317,95.174643 c -3.505482,0.08045 -7.201412,1.580305 -9.068782,4.683554 -1.688101,2.803743 -1.889601,6.466583 -0.559361,9.451293 1.456831,3.1105 4.693231,4.80235 7.762977,5.95915 2.37849,0.9054 5.18435,1.50904 6.751885,3.70288 1.322899,2.13034 0.726575,5.44222 -1.629984,6.59584 -2.775997,1.4187 -6.340946,0.61078 -8.446187,-1.62709 -1.5555,-1.57481 -2.58517,-3.62871 -3.01758,-5.79297 h -2.652341 c 0.23226,3.39511 0.46287,6.79032 0.69336,10.18555 h 2.164061 c 0.15873,-0.76179 0.99145,-1.03694 1.6633,-0.76612 2.245803,0.75142 4.56578,1.44366 6.962816,1.33263 3.731282,-0.0118 7.688172,-1.5252 9.76626,-4.76677 1.805236,-2.81316 2.168212,-6.49554 1.065664,-9.63714 -1.150615,-3.16576 -4.183218,-5.15046 -7.22959,-6.2402 -2.410935,-0.97419 -5.041363,-1.59815 -7.138608,-3.2017 -1.532204,-1.11905 -1.944952,-3.37015 -0.984155,-4.98649 1.34203,-2.278423 4.448592,-2.754475 6.796655,-1.96273 2.779507,0.91197 4.389028,3.72983 4.927735,6.45898 -0.0096,0.74557 0.943752,0.26788 1.413672,0.4043 5.938827,14.83654 39.335671,16.28724 49.806921,-0.49912 0.09471,-2.97426 0.190931,-5.948365 0.284355,-8.922754 -22.243855,19.427714 -39.949945,12.093244 -51.58112,0 -0.06911,0.500171 -0.31016,1.090514 -0.936056,0.89777 -1.597618,-0.273839 -3.075007,-1.085939 -4.715449,-1.19221 -0.69627,-0.08535 -1.399789,-0.09627 -2.100448,-0.07665 z"
         sodipodi:nodetypes="scccccccccccccccccccccccccss" />
    </g>
    <path
       id="path42"
       style="fill:#008080;stroke-width:0;stroke-linecap:round;stroke-linejoin:bevel;paint-order:markers fill stroke;stop-color:#000000"
       d="m -57.546874,91.413559 c -6.698355,1.6e-5 -12.608597,4.381082 -14.556216,10.790031 8.084047,4.37339 17.866823,5.55845 29.095379,-0.0548 -1.965474,-6.381233 -7.862087,-10.735107 -14.539163,-10.735251 z"
       sodipodi:nodetypes="ccccc" />
    <g
       aria-label="APP
DEVLOPER"
       id="text36"
       style="font-style:normal;font-variant:normal;font-weight:normal;font-stretch:normal;font-size:5.29167px;line-height:3.96083px;font-family:'DejaVu Sans Mono';-inkscape-font-specification:'DejaVu Sans Mono, Normal';font-variant-ligatures:normal;font-variant-caps:normal;font-variant-numeric:normal;font-variant-east-asian:normal;text-align:center;writing-mode:lr-tb;text-anchor:middle;fill:#000000;fill-opacity:1;stroke:none;stroke-width:0.264583">
      <path
         d="m -60.341828,95.46608 -0.550354,1.974041 h 1.100708 z m -0.315226,-0.45992 h 0.633036 l 1.180807,3.857648 H -59.38323 L -59.66745,97.8587 h -1.35134 l -0.279053,1.005108 h -0.540019 z"
         style="font-style:normal;font-variant:normal;font-weight:normal;font-stretch:normal;font-size:5.29167px;font-family:'DejaVu Sans Mono';-inkscape-font-specification:'DejaVu Sans Mono, Normal';font-variant-ligatures:normal;font-variant-caps:normal;font-variant-numeric:normal;font-variant-east-asian:normal;text-align:center;writing-mode:lr-tb;text-anchor:middle;stroke-width:0.264583"
         id="path73" />
      <path
         d="m -57.716664,95.435074 v 1.449525 h 0.604615 q 0.361735,0 0.563273,-0.191203 0.204122,-0.191203 0.204122,-0.534851 0,-0.343649 -0.201538,-0.532268 -0.201538,-0.191203 -0.565857,-0.191203 z m -0.521932,-0.428914 h 1.126547 q 0.645956,0 0.979269,0.294556 0.333313,0.291972 0.333313,0.857829 0,0.571025 -0.333313,0.862997 -0.330729,0.291972 -0.979269,0.291972 h -0.604615 v 1.550294 h -0.521932 z"
         style="font-style:normal;font-variant:normal;font-weight:normal;font-stretch:normal;font-size:5.29167px;font-family:'DejaVu Sans Mono';-inkscape-font-specification:'DejaVu Sans Mono, Normal';font-variant-ligatures:normal;font-variant-caps:normal;font-variant-numeric:normal;font-variant-east-asian:normal;text-align:center;writing-mode:lr-tb;text-anchor:middle;stroke-width:0.264583"
         id="path75" />
      <path
         d="m -54.53081,95.435074 v 1.449525 h 0.604615 q 0.361735,0 0.563273,-0.191203 0.204122,-0.191203 0.204122,-0.534851 0,-0.343649 -0.201538,-0.532268 -0.201538,-0.191203 -0.565857,-0.191203 z m -0.521932,-0.428914 h 1.126547 q 0.645956,0 0.979269,0.294556 0.333313,0.291972 0.333313,0.857829 0,0.571025 -0.333313,0.862997 -0.33073,0.291972 -0.979269,0.291972 h -0.604615 v 1.550294 h -0.521932 z"
         style="font-style:normal;font-variant:normal;font-weight:normal;font-stretch:normal;font-size:5.29167px;font-family:'DejaVu Sans Mono';-inkscape-font-specification:'DejaVu Sans Mono, Normal';font-variant-ligatures:normal;font-variant-caps:normal;font-variant-numeric:normal;font-variant-east-asian:normal;text-align:center;writing-mode:lr-tb;text-anchor:middle;stroke-width:0.264583"
         id="path77" />
      <path
         d="m -68.771551,102.39572 q 0.658875,0 0.919841,-0.32297 0.260966,-0.32557 0.260966,-1.17306 0,-0.85525 -0.260966,-1.178224 -0.258382,-0.325562 -0.919841,-0.325562 h -0.248047 v 2.999816 z m 0.01033,-3.42873 q 0.883668,0 1.302247,0.470255 0.418579,0.470256 0.418579,1.462445 0,0.98702 -0.418579,1.45728 -0.418579,0.46767 -1.302247,0.46767 h -0.782898 v -3.85765 z"
         style="font-style:normal;font-variant:normal;font-weight:normal;font-stretch:normal;font-size:5.29167px;font-family:'DejaVu Sans Mono';-inkscape-font-specification:'DejaVu Sans Mono, Normal';font-variant-ligatures:normal;font-variant-caps:normal;font-variant-numeric:normal;font-variant-east-asian:normal;text-align:center;writing-mode:lr-tb;text-anchor:middle;stroke-width:0.264583"
         id="path79" />
      <path
         d="m -66.203231,98.96699 h 2.289267 v 0.43925 h -1.767335 v 1.14205 h 1.689821 v 0.43925 h -1.689821 v 1.39785 h 1.816428 v 0.43925 h -2.33836 z"
         style="font-style:normal;font-variant:normal;font-weight:normal;font-stretch:normal;font-size:5.29167px;font-family:'DejaVu Sans Mono';-inkscape-font-specification:'DejaVu Sans Mono, Normal';font-variant-ligatures:normal;font-variant-caps:normal;font-variant-numeric:normal;font-variant-east-asian:normal;text-align:center;writing-mode:lr-tb;text-anchor:middle;stroke-width:0.264583"
         id="path81" />
      <path
         d="m -61.934755,102.38539 0.906922,-3.4184 h 0.540019 l -1.129131,3.85765 h -0.633036 l -1.129131,-3.85765 h 0.540019 z"
         style="font-style:normal;font-variant:normal;font-weight:normal;font-stretch:normal;font-size:5.29167px;font-family:'DejaVu Sans Mono';-inkscape-font-specification:'DejaVu Sans Mono, Normal';font-variant-ligatures:normal;font-variant-caps:normal;font-variant-numeric:normal;font-variant-east-asian:normal;text-align:center;writing-mode:lr-tb;text-anchor:middle;stroke-width:0.264583"
         id="path83" />
      <path
         d="m -59.785014,98.96699 h 0.524516 v 3.4184 h 1.862936 v 0.43925 h -2.387452 z"
         style="font-style:normal;font-variant:normal;font-weight:normal;font-stretch:normal;font-size:5.29167px;font-family:'DejaVu Sans Mono';-inkscape-font-specification:'DejaVu Sans Mono, Normal';font-variant-ligatures:normal;font-variant-caps:normal;font-variant-numeric:normal;font-variant-east-asian:normal;text-align:center;writing-mode:lr-tb;text-anchor:middle;stroke-width:0.264583"
         id="path85" />
      <path
         d="m -54.816322,100.89969 q 0,-0.85008 -0.1757,-1.214398 -0.173116,-0.364319 -0.571025,-0.364319 -0.395325,0 -0.571025,0.364319 -0.173116,0.364318 -0.173116,1.214398 0,0.84749 0.173116,1.21181 0.1757,0.36432 0.571025,0.36432 0.397909,0 0.571025,-0.36173 0.1757,-0.36432 0.1757,-1.2144 z m 0.545186,0 q 0,1.00769 -0.320394,1.50378 -0.31781,0.4961 -0.971517,0.4961 -0.653707,0 -0.971518,-0.49351 -0.31781,-0.49351 -0.31781,-1.50637 0,-1.010275 0.31781,-1.50637 0.320394,-0.496094 0.971518,-0.496094 0.653707,0 0.971517,0.496094 0.320394,0.496095 0.320394,1.50637 z"
         style="font-style:normal;font-variant:normal;font-weight:normal;font-stretch:normal;font-size:5.29167px;font-family:'DejaVu Sans Mono';-inkscape-font-specification:'DejaVu Sans Mono, Normal';font-variant-ligatures:normal;font-variant-caps:normal;font-variant-numeric:normal;font-variant-east-asian:normal;text-align:center;writing-mode:lr-tb;text-anchor:middle;stroke-width:0.264583"
         id="path87" />
      <path
         d="m -52.937883,99.395904 v 1.449526 h 0.604615 q 0.361735,0 0.563273,-0.1912 0.204122,-0.19121 0.204122,-0.53486 0,-0.343644 -0.201538,-0.532263 -0.201538,-0.191203 -0.565857,-0.191203 z m -0.521932,-0.428914 h 1.126547 q 0.645956,0 0.979269,0.294555 0.333313,0.291973 0.333313,0.857825 0,0.57103 -0.333313,0.863 -0.33073,0.29197 -0.979269,0.29197 h -0.604615 v 1.5503 h -0.521932 z"
         style="font-style:normal;font-variant:normal;font-weight:normal;font-stretch:normal;font-size:5.29167px;font-family:'DejaVu Sans Mono';-inkscape-font-specification:'DejaVu Sans Mono, Normal';font-variant-ligatures:normal;font-variant-caps:normal;font-variant-numeric:normal;font-variant-east-asian:normal;text-align:center;writing-mode:lr-tb;text-anchor:middle;stroke-width:0.264583"
         id="path89" />
      <path
         d="m -50.273961,98.96699 h 2.289267 v 0.43925 h -1.767335 v 1.14205 h 1.689821 v 0.43925 h -1.689821 v 1.39785 h 1.816428 v 0.43925 h -2.33836 z"
         style="font-style:normal;font-variant:normal;font-weight:normal;font-stretch:normal;font-size:5.29167px;font-family:'DejaVu Sans Mono';-inkscape-font-specification:'DejaVu Sans Mono, Normal';font-variant-ligatures:normal;font-variant-caps:normal;font-variant-numeric:normal;font-variant-east-asian:normal;text-align:center;writing-mode:lr-tb;text-anchor:middle;stroke-width:0.264583"
         id="path91" />
      <path
         d="m -45.633415,101.00304 q 0.201539,0.0517 0.343649,0.19637 0.14211,0.14211 0.353984,0.57103 l 0.524516,1.0542 h -0.56069 l -0.45992,-0.9741 q -0.198955,-0.416 -0.359152,-0.53486 -0.157613,-0.12143 -0.413412,-0.12143 h -0.498677 v 1.63039 h -0.524517 v -3.85765 h 1.074871 q 0.63562,0 0.974101,0.286804 0.338481,0.286804 0.338481,0.829406 0,0.38241 -0.20929,0.62529 -0.206706,0.24029 -0.583944,0.29455 z m -1.069702,-1.607136 v 1.369426 h 0.571024 q 0.374655,0 0.558106,-0.16795 0.183452,-0.16795 0.183452,-0.51418 0,-0.333312 -0.196371,-0.509012 -0.193787,-0.178284 -0.565857,-0.178284 z"
         style="font-style:normal;font-variant:normal;font-weight:normal;font-stretch:normal;font-size:5.29167px;font-family:'DejaVu Sans Mono';-inkscape-font-specification:'DejaVu Sans Mono, Normal';font-variant-ligatures:normal;font-variant-caps:normal;font-variant-numeric:normal;font-variant-east-asian:normal;text-align:center;writing-mode:lr-tb;text-anchor:middle;stroke-width:0.264583"
         id="path93" />
    </g>
    <g
       aria-label="S"
       id="text28-0"
       style="font-style:normal;font-variant:normal;font-weight:bold;font-stretch:normal;font-size:47.7822px;line-height:1.25;font-family:'Frank Ruhl Hofshi';-inkscape-font-specification:'Frank Ruhl Hofshi, Bold';font-variant-ligatures:normal;font-variant-caps:normal;font-variant-numeric:normal;font-variant-east-asian:normal;fill:#808000;fill-opacity:1;stroke:none;stroke-width:0.264583" />
  </g>
</svg>
